<svg width="34" height="36" viewBox="0 0 34 36" fill="none" xmlns="http://www.w3.org/2000/svg">
<path fill-rule="evenodd" clip-rule="evenodd" d="M16.9725 0.364075C10.5454 0.364075 5.33524 5.41393 5.33524 11.6432V14.2461H4.44006C2.4625 14.2461 0.859375 15.7999 0.859375 17.7167V31.5987C0.859375 33.5154 2.4625 35.0692 4.44006 35.0692H29.5049C31.4825 35.0692 33.0856 33.5154 33.0856 31.5987V17.7167C33.0856 15.7999 31.4825 14.2461 29.5049 14.2461H28.6097V11.6432C28.6097 5.41393 23.3995 0.364075 16.9725 0.364075ZM23.2387 14.2461V11.6432C23.2387 8.289 20.4332 5.56985 16.9725 5.56985C13.5117 5.56985 10.7063 8.289 10.7063 11.6432V14.2461H23.2387Z" fill="#343E73"/>
</svg>
